<svg xmlns="http://www.w3.org/2000/svg" width="15" height="14" viewBox="0 0 15 14" class="user-review-thumbIcon user-review-thumbsDown user-review-rotate180"><g fill="none" fill-rule="evenodd"><path d="M-5-8h24v24H-5z"></path><path fill="#535766" fill-rule="nonzero" d="M1.032.383H2.9c.307 0 .593.127.769.34C4.04.276 4.612 0 5.27 0h6.391c1.405 0 2.306.723 2.481 1.955L15 7.184v.127c0 1.106-.922 2.02-2.086 2.02H9.663v2.252c0 .957-.285 1.637-.856 2.04-.9.638-2.13.277-2.174.256l-.264-.085V11.01c0-1.998-2.394-2.678-2.482-2.7l-.197-.042a1.022 1.022 0 01-.813.382H1.01A.992.992 0 010 7.673V1.382a1.029 1.029 0 011.032-1zM7.162 11v2.246c.327.042.873.085 1.265-.212.37-.254.545-.742.545-1.462V8.606h3.948c.741 0 1.33-.593 1.33-1.293v-.042l-.85-5.19v-.022c-.11-.89-.698-1.335-1.723-1.335H5.33C4.59.724 4 1.317 4 2.017v5.55l.174.043c.11.042 2.988.848 2.988 3.39zM.75 7.693c0 .147.135.273.293.273h1.914c.158 0 .293-.126.293-.273V1.48c0-.147-.135-.273-.293-.273H1.043c-.158 0-.293.126-.293.273v6.213z"></path></g></svg>